<?xml version="1.0" encoding="utf-8"?>
<!-- Generator: Adobe Illustrator 18.1.1, SVG Export Plug-In . SVG Version: 6.00 Build 0)  -->
<svg version="1.1" xmlns="http://www.w3.org/2000/svg" xmlns:xlink="http://www.w3.org/1999/xlink" x="0px" y="0px"
	 viewBox="0 0 1069.5 487.6" enable-background="new 0 0 1069.5 487.6" xml:space="preserve">
<g id="Layer_3">
</g>
<g id="Shadows" display="none">
</g>
<g id="Wrench">
</g>
<g id="Hand">
</g>
<g id="Layer_5">
</g>
<g id="Layer_6">
</g>
<g id="Blue_Background">
</g>
<g id="White_Background">
	<path fill="#939598" stroke="#414042" stroke-width="4" stroke-miterlimit="10" d="M427.5,56.5c12.6-10.8,29-17.3,46.8-17.3
		c7,0,13.8,1,20.3,2.9c0,0-23.3,16.5-23.3,16.5c0,0-16.8,36.3-16.8,36.3L427.5,56.5z"/>
	<g>
		<path fill="#414042" d="M474.3,39.1c7,0,13.8,1,20.3,2.9c0,0-23.3,16.5-23.3,16.5c0,0-16.8,36.3-16.8,36.3l15.4,21.8l39.8-3.6
			l28.6-20.2c0.3,2.5,0.4,5,0.4,7.5c0,39.8-32.2,72-72,72h-70.8l-67.1,50.5l0,16.3c0,0-0.1,0-0.1,0.1c4.1-2.4,8.8-3.7,13.8-3.7
			c15.2,0,27.5,12.3,27.5,27.5c0,6.1-2,11.8-5.4,16.4c0,0,0,0,0.1-0.1l-33.2,49.9L303.2,348v10h-10v23H158.7v-23h-9.6v0
			c-40,30.1-77.3,58.2-77.3,58.2l-38-50.5l78.7-59.2l-13.1-28.1c0,0-5.2-12.4-5.2-28.1c0-10.7,7.6-22.8,7.6-22.8l41.7-72.4H189
			l4.6,9.9l9.9-9.9h40.9l4.6,9.9l0,0l9.9-9.9h40.9l3.6,7.8l40.2-28.7c0,0,24.7-17.7,31.3-25.1c7.6-8.5,28.9-43.7,28.9-43.7l0,0
			c4.2-7.5,9.6-14.1,16.1-19.6l7.7,10.9C440.1,45.7,456.4,39.1,474.3,39.1 M474.3,34.1L474.3,34.1c-16.5,0-32.6,5.3-45.8,15.1
			l-4.6-6.5l-3.2-4.5l-4.2,3.6c-6.9,5.9-12.7,13-17.1,20.9c-5.4,9.1-22.2,36.1-28.3,42.9c-5.2,5.7-23.8,19.6-30.5,24.4l-35.3,25.2
			l-1.1-2.4L303,150h-3.2h-40.9h-2.1l-1.5,1.5l-4.8,4.8l-1.6-3.4l-1.3-2.9h-3.2h-40.9h-2.1l-1.5,1.5l-4.8,4.8l-1.6-3.4l-1.3-2.9H189
			h-45.6h-2.9l-1.4,2.5l-41.6,72.3c-0.8,1.3-8.3,13.8-8.3,25.4c0,16.5,5.3,29.5,5.6,30l0,0.1l0,0.1l11.4,24.5l-75.5,56.8l-4,3l3,4
			l38,50.5l3,4l4-3l76-57.1l2.9,0v18v5h5h134.5h5v-5v-18h5h5v-5v-7.3l26.1-17.4l0.8-0.6l0.6-0.8l33.1-49.8
			c4.1-5.6,6.2-12.2,6.2-19.1c0-17.9-14.6-32.5-32.5-32.5c-3,0-5.9,0.4-8.7,1.2l0-6.3l63.8-48h69.1c42.5,0,77-34.5,77-77
			c0-2.7-0.1-5.4-0.4-8l-0.3-2.7l-2.4-1.2c-0.8-0.4-1.5-0.6-2.2-0.6c-1.6,0-3,0.9-4.2,1.8l-3.2,2.3l-9.8,6.9l-13.2,9.3l-35.6,3.2
			l-12.1-17.1c0.9-2,2.5-5.4,5.2-11.2c3.8-8.3,8.3-17.9,9.8-21.2l10.6-7.5c12.2-8.6,12.2-8.6,12.6-9.1l4.9-5.9l-7.3-2.1
			C489,35.2,481.7,34.1,474.3,34.1L474.3,34.1z"/>
	</g>
	<polygon fill="#D1D3D4" stroke="#414042" stroke-width="4" stroke-miterlimit="10" points="157.8,278.8 303.2,278.8 303.2,358 
		149.1,358 149.1,287.2 	"/>
	<rect x="293.5" y="247" fill="#D1D3D4" stroke="#414042" stroke-width="4" stroke-miterlimit="10" width="26.6" height="31.9"/>
	<rect x="158.7" y="358" fill="#BCBEC0" stroke="#414042" stroke-width="4" stroke-miterlimit="10" width="134.5" height="23"/>
	<g>
		<rect x="182.1" y="267" fill="#BCBEC0" width="102.4" height="101.2"/>
		<g>
			<path fill="#414042" d="M283.3,268.3V367h-99.9v-98.7H283.3 M285.8,265.8h-2.5h-99.9h-2.5v2.5V367v2.5h2.5h99.9h2.5V367v-98.7
				V265.8L285.8,265.8z"/>
		</g>
	</g>
	<path fill="#939598" stroke="#414042" stroke-width="4" stroke-miterlimit="10" d="M183.8,271.5c0,0-14.4-2.1-17.5-5.5L33.8,365.6
		l38,50.5L244.7,286l-15.9-1.2c-9.1,0-16.9-5.5-20.2-13.4L183.8,271.5z"/>
	<path fill="#D1D3D4" stroke="#414042" stroke-width="4" stroke-miterlimit="10" d="M364.7,279.2c-5,6.8-13.1,11.2-22.2,11.2
		c-9.2,0-17.4-4.6-22.4-11.6l-16.9,0V348l28.3-18.9L364.7,279.2z"/>
	<path fill="#939598" stroke="#414042" stroke-width="4" stroke-miterlimit="10" d="M466.7,172.3h-70.8l-67.1,50.5h0v-5.7
		l-25.4-54.3l40.2-28.7c0,0,24.7-17.7,31.3-25.1c7.6-8.5,28.9-43.7,28.9-43.7l0,0c4.2-7.5,9.6-14.1,16.1-19.6l27,38.3l23,32.7
		l39.8-3.6l28.6-20.2c0.3,2.5,0.4,5,0.4,7.5C538.7,140.1,506.4,172.3,466.7,172.3"/>
	<line fill="none" stroke="#414042" stroke-width="5" stroke-miterlimit="10" x1="422.6" y1="45.6" x2="472.7" y2="116.6"/>
	<path fill="#D1D3D4" stroke="#414042" stroke-width="4" stroke-miterlimit="10" d="M218,243.8v-25.3l-29-63.5h-45.6l-41.7,72.4
		c0,0-7.6,12.1-7.6,22.8c0,15.7,5.2,28.1,5.2,28.1l13.1,28.1l53.7-40.4c3.1,3.4,17.5,5.5,17.5,5.5l24.8,0c-1.1-2.6-1.7-5.5-1.7-8.6
		C206.8,254.7,211.3,247.5,218,243.8z"/>
	<path fill="#D1D3D4" stroke="#414042" stroke-width="4" stroke-miterlimit="10" d="M193.6,164.8l24.4,53.6l0,25.3
		c3.2-1.8,6.9-2.8,10.8-2.8l44.6-3.4v-20.5l-29-62.1h-40.9L193.6,164.8z"/>
	<path fill="none" stroke="#414042" stroke-width="4" stroke-miterlimit="10" d="M166.2,266c-2.8-3.1-3.6-16.3-3.6-16.3v-24.3
		l-15.7-15.7"/>
	<path fill="#D1D3D4" stroke="#414042" stroke-width="4" stroke-miterlimit="10" d="M328.8,239.1c-3.4,2-6.4,4.7-8.7,7.9l-26.6,0
		v-10.9l-20.1,1.5v-20.5L249,164.8l0,0l9.9-9.9h40.9l29,62.1L328.8,239.1z"/>
	<path fill="#D1D3D4" stroke="#414042" stroke-width="4" stroke-miterlimit="10" d="M293.5,289.7l-64.7-4.9c-12.1,0-22-9.8-22-22
		c0-12.1,9.8-22,22-22l64.7-4.9V289.7z"/>
	<circle fill="#BCBEC0" stroke="#414042" stroke-width="2.5" stroke-miterlimit="10" cx="342.5" cy="262.9" r="27.5"/>
	<g>
		<path fill="#414042" d="M538.7,214.1c0.8,0.8,1.3,1.9,1.3,3.1v129.7c0,3.7-0.7,7.2-2.2,10.5c-1.5,3.3-3.4,6.2-5.7,8.6
			c-2.4,2.5-5.2,4.4-8.5,5.7c-3.3,1.4-6.8,2.1-10.5,2.1h-81.4c-3.7,0-7.2-0.7-10.5-2.1c-3.3-1.4-6.2-3.3-8.6-5.7
			c-2.5-2.5-4.4-5.3-5.7-8.6c-1.4-3.3-2.1-6.8-2.1-10.5V217.2c0-2.9,1.5-4.4,4.4-4.4h31.7c2.9,0,4.4,1.5,4.4,4.4v113.3
			c0,1.2,0.4,2.2,1.3,3c0.8,0.8,1.9,1.1,3.1,1.1h45.5c1.2,0,2.2-0.4,3-1.1c0.8-0.8,1.1-1.8,1.1-3V217.2c0-1.2,0.4-2.3,1.3-3.1
			c0.8-0.8,1.9-1.3,3.1-1.3h32C536.9,212.8,537.9,213.3,538.7,214.1z"/>
		<path fill="#414042" d="M690.1,247.6c0,1.2-0.4,2.3-1.3,3.1c-0.8,0.8-1.9,1.3-3.1,1.3h-32.6c-1.2,0-2.3,0.4-3.1,1.2
			c-0.8,0.8-1.3,1.8-1.3,3v113.3c0,1.2-0.4,2.3-1.1,3.1c-0.8,0.8-1.8,1.3-3,1.3h-32c-1.2,0-2.3-0.4-3.1-1.3
			c-0.8-0.8-1.3-1.9-1.3-3.1V256.1c0-1.2-0.4-2.2-1.1-3c-0.8-0.8-1.8-1.2-3-1.2h-32.6c-1.2,0-2.3-0.4-3.1-1.3
			c-0.8-0.8-1.3-1.9-1.3-3.1v-30.3c0-2.9,1.5-4.4,4.4-4.4h32.6h8.5h32h8.5h32.6c1.2,0,2.3,0.4,3.1,1.3c0.8,0.8,1.3,1.9,1.3,3.1
			V247.6z"/>
		<path fill="#414042" d="M855.7,370.1c0.6,1.1,0.7,2,0.2,2.6c-0.5,0.7-1.3,1-2.5,1h-36.6c-1.2,0-2.5-0.3-3.7-1
			c-1.2-0.7-2.1-1.6-2.8-2.6L786,326.4c-0.3-0.6-0.8-0.9-1.6-0.9H757c-0.8,0-1.1,0.4-1.1,1.1v42.8c0,2.9-1.5,4.4-4.4,4.4h-31.7
			c-2.9,0-4.4-1.5-4.4-4.4V217.2c0-2.9,1.5-4.4,4.4-4.4h103.9c3.7,0,7.2,0.7,10.5,2.2c3.3,1.5,6.1,3.4,8.5,5.7
			c2.4,2.4,4.3,5.2,5.7,8.5c1.5,3.3,2.2,6.8,2.2,10.5v60.5c0,5.8-1.7,11.1-5.2,15.7c-3.4,4.7-7.9,7.9-13.2,9.5l-0.7,0.2
			c-1.1,0.3-1.3,0.8-0.7,1.4l0.2,0.5L855.7,370.1z M809.9,250.3h-55.4v39.1h55.4V250.3z"/>
		<path fill="#414042" d="M998.7,212.8c3.7,0,7.2,0.7,10.5,2.2c3.3,1.5,6.1,3.4,8.5,5.7c2.4,2.4,4.3,5.2,5.7,8.5
			c1.5,3.3,2.2,6.8,2.2,10.5v129.7c0,1.2-0.4,2.3-1.3,3.1c-0.8,0.8-1.9,1.3-3.1,1.3h-32c-1.2,0-2.3-0.4-3.1-1.3
			c-0.8-0.8-1.3-1.9-1.3-3.1v-41.2c0-1.2-0.4-2.3-1.1-3.1c-0.8-0.8-1.8-1.3-3-1.3h-45.5c-1.2,0-2.3,0.4-3.1,1.3
			c-0.8,0.8-1.3,1.9-1.3,3.1v41.2c0,2.9-1.5,4.4-4.4,4.4h-31.7c-2.9,0-4.4-1.5-4.4-4.4V239.7c0-3.7,0.7-7.2,2.1-10.5
			c1.4-3.3,3.3-6.1,5.7-8.5c2.5-2.4,5.3-4.3,8.6-5.7c3.3-1.5,6.8-2.2,10.5-2.2H998.7z M984.9,289.4v-40.5h-54v40.5H984.9z"/>
	</g>
</g>
</svg>
