<?xml version="1.0" standalone="no"?>
<!DOCTYPE svg PUBLIC "-//W3C//DTD SVG 20010904//EN"
 "http://www.w3.org/TR/2001/REC-SVG-20010904/DTD/svg10.dtd">
<svg version="1.0" xmlns="http://www.w3.org/2000/svg"
 width="262.000000pt" height="262.000000pt" viewBox="0 0 262.000000 262.000000"
 preserveAspectRatio="xMidYMid meet">
<metadata>
Created by potrace 1.11, written by Peter Selinger 2001-2013
</metadata>
<g transform="translate(0.000000,262.000000) scale(0.100000,-0.100000)"
fill="#000000" stroke="none">
<path d="M1171 2606 l-83 -9 6 -54 c3 -30 7 -59 9 -66 1 -7 -11 -13 -28 -15
-16 -2 -49 -10 -73 -18 -65 -21 -69 -19 -88 41 -10 30 -22 55 -28 55 -22 -1
-155 -58 -180 -77 -24 -19 -24 -21 -8 -44 9 -13 22 -35 28 -49 10 -23 7 -27
-43 -62 -84 -59 -94 -63 -106 -43 -5 9 -22 31 -37 48 l-27 31 -65 -55 c-36
-30 -73 -66 -82 -81 -16 -26 -16 -27 24 -59 22 -18 40 -37 40 -42 0 -11 -99
-137 -107 -137 -4 0 -28 14 -55 31 -27 17 -50 30 -51 28 -27 -37 -89 -155 -93
-177 -5 -25 -2 -31 17 -37 13 -4 38 -14 55 -21 l31 -15 -28 -77 c-29 -84 -31
-85 -116 -70 -18 4 -36 2 -39 -3 -14 -23 -40 -208 -30 -212 6 -2 33 -5 61 -6
27 -2 53 -5 56 -7 12 -7 6 -168 -5 -176 -6 -4 -35 -8 -63 -8 l-53 0 0 -34 c0
-32 26 -185 33 -192 1 -2 29 4 60 12 32 8 61 12 66 10 5 -3 12 -22 15 -41 4
-20 15 -55 26 -79 l18 -43 -55 -23 c-30 -12 -57 -28 -59 -35 -3 -6 10 -38 28
-71 18 -32 39 -71 47 -86 18 -36 37 -35 92 2 24 16 47 26 50 22 3 -4 27 -35
54 -70 l48 -62 -47 -46 c-47 -45 -48 -46 -29 -66 30 -36 94 -92 125 -112 29
-18 31 -18 40 -2 5 9 23 33 40 52 31 35 31 35 52 16 12 -11 35 -26 51 -35 17
-8 38 -24 48 -35 17 -18 16 -21 -13 -78 -23 -43 -28 -60 -18 -63 7 -2 46 -19
86 -38 107 -49 110 -49 136 22 15 41 27 59 37 56 7 -2 41 -10 74 -18 76 -18
87 -27 74 -59 -5 -14 -9 -43 -9 -64 l0 -38 88 -7 c48 -4 96 -8 106 -8 23 -2
34 31 31 94 -1 44 -1 45 29 45 17 1 57 4 89 7 45 4 57 2 58 -9 1 -8 3 -18 4
-24 1 -5 3 -23 4 -38 0 -16 7 -36 14 -45 11 -17 18 -16 111 8 54 13 101 27
104 29 2 3 -5 33 -16 68 -21 66 -20 78 4 78 8 0 37 11 64 25 27 14 56 25 63
25 8 0 25 -25 38 -55 15 -33 30 -55 40 -55 9 0 55 25 102 56 97 62 96 62 36
132 -16 18 -29 36 -28 40 0 4 30 31 65 61 l66 54 42 -42 c23 -22 47 -41 53
-41 34 0 157 172 130 183 -7 3 -31 19 -54 36 l-43 31 37 67 c20 38 39 72 43
76 4 5 25 -1 46 -12 21 -11 51 -23 65 -26 24 -6 28 -2 44 37 9 24 26 71 36
106 19 69 21 66 -42 76 -66 11 -73 23 -60 102 7 38 15 74 19 80 4 7 30 8 70 4
52 -5 63 -3 67 11 9 27 10 183 2 197 -5 7 -32 12 -73 12 -35 0 -64 3 -65 8 0
4 -2 23 -4 43 -3 20 -8 55 -13 77 l-10 41 52 11 c85 20 84 19 79 43 -15 67
-57 179 -69 184 -8 3 -33 -3 -57 -12 -23 -9 -47 -19 -53 -22 -6 -2 -29 32 -52
75 l-41 79 22 10 c13 6 37 23 54 37 l32 27 -33 55 c-43 71 -82 114 -103 114
-10 0 -34 -19 -55 -42 l-37 -43 -65 66 -66 66 35 41 c41 47 43 61 13 89 -38
34 -114 81 -140 88 -21 5 -27 1 -43 -34 -29 -65 -34 -66 -120 -26 -64 29 -76
38 -70 52 12 30 35 106 33 109 -5 4 -193 54 -205 54 -6 0 -14 -13 -17 -30 -3
-16 -9 -44 -12 -61 l-6 -31 -62 6 c-33 4 -70 8 -81 10 -11 3 -23 5 -27 5 -4 1
-7 26 -7 57 1 30 -1 57 -3 59 -9 10 -88 10 -167 1z"/>
</g>
</svg>
